<svg id="Capa_1" data-name="Capa 1" xmlns="http://www.w3.org/2000/svg" viewBox="0 0 885 1005.24"><defs><style>.cls-1{fill:#6cc550;}.cls-2{fill:#020202;}.cls-3{fill:#060606;}.cls-4{fill:#070707;}.cls-5{fill:#080808;}</style></defs><path class="cls-1" d="M1402.5,719.38q-1.76,8.61-3.52,17.24c-7.75,38-26.63,70-53.46,97.53-47.69,48.91-106.12,78.17-172.18,93.21-51.23,11.66-103.16,13.88-155.41,11-16.59-.9-33.13-2.59-51.28-4,2.16-1.69,3-2.5,4-3.1,22.07-13.32,44.12-26.68,66.31-39.82a16.73,16.73,0,0,1,8-1.83c38.37-.47,76-5.18,112-19.16,27.25-10.57,51.18-26.19,71-47.76,35.68-38.79,40-87.78,11.71-132.6-16-25.38-38.33-44.09-63.22-60-27.1-17.38-56.48-30.39-85.66-43.7C1029.61,558.42,968,531.24,907,503c-43.62-20.16-86.82-41.29-126.91-68.08-30.7-20.52-58.16-44.61-78.6-75.76C659.51,295.28,663.88,213,712.45,153c35.64-44,81.44-73.54,134.33-92.57C882.73,47.51,920,41,958,38.36a17.09,17.09,0,0,0,3.48-1h62a9.6,9.6,0,0,0,2.54.95c28.59,1.91,57,5.57,84.64,13,30.28,8.1,60.14,17.76,90.24,26.59,16.71,4.9,33.34,10.44,51.23,8.52,17.39-1.88,31.19-9.25,38.6-25.78,3.39-7.54,5.86-15.49,8.75-23.25h30c0,.83.16,1.66.16,2.49q0,146,0,292c0,1.25-.22,2.51-.34,3.78h-29.6c-.38-1.56-.67-2.85-1-4.14-5.4-21.24-9.7-42.84-16.43-63.65-18.64-57.68-54.44-101.94-107.27-132A358.37,358.37,0,0,0,1031.6,90.21c-36.57-3.63-72.85-2.43-108.48,7.25-39.76,10.81-74,30.81-99.78,63.44-30.54,38.62-28.32,86.72,4.91,122.85,18,19.63,40.14,33.89,62.87,47.2,51.59,30.23,105.94,54.9,160.8,78.46,66.1,28.39,132.53,56,196.58,89,31.94,16.41,62.51,34.85,88.5,60,29.26,28.34,51.12,61.19,60.85,101.25,2,8.14,3.12,16.49,4.65,24.74Z" transform="translate(-517.5 -37.38)"/><path class="cls-2" d="M517.5,716.38q1.72-8.36,3.46-16.69c8.45-40.77,28.55-75.39,57.09-105.07,40.79-42.43,91.1-65.61,149.46-72.48,49.89-5.88,98.18.24,145.47,16.48a208.43,208.43,0,0,0,22.59,6.09c9.93,2.19,17-2.17,19.71-11.9,1.15-4.13,1.64-8.44,2.44-12.74H930.5c4,42,8.1,83.93,12.2,126.47-3.7,0-7.2.38-10.53-.18-1.38-.23-2.9-2.26-3.55-3.81-7-17-15.52-33.11-27-47.51-22.19-27.79-51.56-43.71-86-50.22-37.08-7-74-5.64-109.81,7-45.4,16-75,48.6-93.15,92.17-14.22,34.09-17.44,69.77-13.26,106.27C604,790.78,619,827,645,858.51c25.54,31,59.21,48.58,97.85,56.52,45.32,9.32,88.95,2.07,130.79-16.95a5.83,5.83,0,0,0,2.77-4.35q.14-62.73-.13-125.47a99.32,99.32,0,0,0-1.94-17.33c-2.66-14.42-14.46-24.32-31.71-26.48-9.07-1.13-18.22-1.58-27.73-2.37V711.52h182.6v10.33c-8.1.83-16.24,1.07-24.15,2.58-14.26,2.73-23.71,11.1-25.91,25.91a206.21,206.21,0,0,0-2.62,28.78c-.29,40-.16,80,0,120,0,3.38-.79,5.18-4.13,6.67a374.56,374.56,0,0,1-142.8,33.17c-43.51,1.38-86.47-1.66-128.3-14.56-52.4-16.16-94.81-46-124.66-92.5a174.08,174.08,0,0,1-26.27-73.54,13.88,13.88,0,0,0-1.08-3Z" transform="translate(-517.5 -37.38)"/><path class="cls-3" d="M1278.5,1039.76h-32.84c.3-.4.64-1.28,1-1.28,8.36-.13,11-5.79,13-12.66,4.46-16,9.19-31.89,13.8-47.83.73-2.55,1.45-5.11,2.13-7.68,2.51-9.38,1.43-11.51-9.16-15.11a15.53,15.53,0,0,1,2.85-.72c11.48,0,23-.55,34.44.33,10.78.82,16.35,6.15,18.16,14.85s-2.46,18.22-10.91,23.35c-3.49,2.12-7.53,3.35-12,5.28,3.75,10.72,7.27,21.91,11.72,32.71,1.16,2.82,5.17,4.54,8,6.54,1.07.74,2.6.83,3.82,2.26h-21.22c-3.73-11.42-7.9-23.15-11.28-35.1-1.37-4.83-3.38-7.11-8.37-6.53a14.41,14.41,0,0,1-3.16-.46c-3,11.11-6.09,22.27-8.88,33.5-.91,3.66.93,6.06,4.93,6.51a29.28,29.28,0,0,1,4,1Zm1.51-46.51c13.8,3.45,25.87-3,29-14.86,3.18-12.17-3.88-21-16-19.72a5.24,5.24,0,0,0-3.73,2.84C1286,971.93,1283.1,982.45,1280,993.25Z" transform="translate(-517.5 -37.38)"/><path class="cls-4" d="M1007.58,997.88h36.63c-1.83.87-2.67,1.59-3.54,1.63-5.64.28-8.73,3.39-10.19,8.62-2.29,8.15-4.8,16.24-7,24.42a7.49,7.49,0,0,1-5,5.49,54,54,0,0,1-34.21,3c-13.67-3.32-23.31-14.93-24.84-29.29-4-38,34.68-68.95,70.87-56.64,3.57,1.21,6.77,1.85,9.22-2,.35-.57,1.64-.54,2.61-.82-1,11.75-5.29,26-8,26.89-.13-.29-.39-.59-.37-.87,1-15.84-8.44-24-24.59-21.51C994.06,959.18,985,969.07,978.64,982c-5.69,11.67-7.84,24-4.31,36.8,5.44,19.76,22,20.87,35.51,16a4.08,4.08,0,0,0,2.27-2.29c2.25-7.81,4.58-15.62,6.39-23.55,1.54-6.77-.12-8.62-7.08-9.38l-3.82-.41Z" transform="translate(-517.5 -37.38)"/><path class="cls-4" d="M1167.29,981c-4.51,21.34-7.69,31-10.53,32.2,1.54-18.14-3.65-15.51-19.51-15.62-3.16,11-6.42,22.16-9.54,33.34-1,3.39.91,5.27,4.14,5.21,7.14-.14,14.35-.07,21.38-1.1,8.79-1.28,14.78-7.11,19.45-14.4a32,32,0,0,1,3.16-3.66l1.28.76c-2.6,7.52-5.19,15-7.78,22.53H1104.1l-.3-1a10.76,10.76,0,0,1,3-1.07c5.2-.3,8.26-3.09,9.65-7.92,6-20.91,12.19-41.77,17.92-62.75,2.37-8.68,1.68-9.17-8-12.5h61.17c-2.53,6.2-2.4,13.54-6,19.31-1.6-4.34-2-9.5-4.68-11.63-3.43-2.69-8.73-3.43-13.35-4-4.9-.65-9.94-.15-15.33-.15-3.22,11.41-6.45,22.87-10,35.3,6.16-.63,12.2,0,17.09-2.12C1159.76,989.83,1163,985,1167.29,981Z" transform="translate(-517.5 -37.38)"/><path class="cls-4" d="M838.3,1039.77H803.87c1.41-.77,2.14-1.51,2.87-1.51,6.1,0,9.39-3.3,11-8.89,5.91-20.75,12-41.44,17.77-62.23,2.19-8,1.34-8.81-6.51-10.54-.59-.13-1.17-.34-1.84-1.57a16.37,16.37,0,0,1,3.19-.63c11.5,0,23-.17,34.48,0,10.55.17,19.14,5.94,21.53,14,2.54,8.64-1.44,18.86-9.82,24.85-9.32,6.66-19.81,8.14-30.9,6.67-2.27-.3-4.53-.74-7.4-1.21-3.15,11.29-6.41,22.39-9.16,33.62-.33,1.32,1.84,3.83,3.44,4.88s3.92,1,5.92,1.37Zm1.33-45.71c9.19,3.35,17.9,2.7,24.75-1.63,8.1-5.13,12.5-17.43,9.23-25.77-2.69-6.84-9.55-9.28-20.48-7.68-2.87.42-4.18,1.32-4.94,4.28C845.57,973.51,842.55,983.67,839.63,994.06Z" transform="translate(-517.5 -37.38)"/><path class="cls-5" d="M642.92,952.8l-6.54,27.77-2.07-.2c0-2,0-4,0-6a17.41,17.41,0,0,0-25.45-15.11c-7.47,3.87-9.55,12.16-4.41,19.49,2.85,4.06,6.49,7.56,9.86,11.23,3.6,3.92,7.5,7.58,10.93,11.64,6.64,7.85,7.9,16.67,3.56,26-4.42,9.56-12.37,14.4-22.57,14.54-5.67.08-11.49-1.31-17-2.88-4.86-1.39-9.26-3.43-12.26,2.71-.18.36-1.22.29-2.69.59l7.09-32.44,2,.23c0,2.84,0,5.68,0,8.52.19,12.44,9.78,20.76,22.1,19.19,11.79-1.5,18.12-15.48,11.1-25.64-4.32-6.25-9.69-11.81-14.88-17.42-5.86-6.33-11.37-12.6-10.75-22.11.94-14.28,15-23.74,30.17-20a48.74,48.74,0,0,1,8.44,3c4.19,1.89,7.68,1.9,10.26-2.55.33-.57,1.27-.8,1.94-1.19Z" transform="translate(-517.5 -37.38)"/><path class="cls-3" d="M720.85,955.09h32.73a3,3,0,0,1-.11.61c-9.74,1.1-11.65,8.62-13.79,16.29-5.19,18.54-10.71,37-16,55.5-2.37,8.27-1.78,9,7,10.7a2.41,2.41,0,0,1,1.83,1.65h-36c1.91-.86,2.79-1.59,3.66-1.59,6.86,0,10.19-4,11.93-10q7.23-24.87,14.39-49.75c1.24-4.31,2.5-8.62,3.48-13,1.47-6.56.08-8.27-6.82-9-.77-.08-1.54-.31-2.31-.46Z" transform="translate(-517.5 -37.38)"/></svg>